<?xml version="1.0" encoding="UTF-8"?>
<svg width="1112px" height="1112px" viewBox="0 0 1112 1112" version="1.1" xmlns="http://www.w3.org/2000/svg" xmlns:xlink="http://www.w3.org/1999/xlink">
    <!-- Generator: Sketch 53.2 (72643) - https://sketchapp.com -->
    <title>Group 2</title>
    <desc>Created with Sketch.</desc>
    <g id="Page-1" stroke="none" stroke-width="1" fill="none" fill-rule="evenodd">
        <g id="Group-2" transform="translate(0.000000, -0.000000)">
            <circle id="Oval-Copy-4" fill="#F8F9FA" cx="556" cy="556" r="556"></circle>
            <path d="M707.471,604.339 C692.757,589.618 682.661,563.879 677.659,540.475 C672.648,563.879 662.586,589.617 647.856,604.347 C633.126,619.061 607.392,629.148 583.992,634.159 C607.4,639.169 633.126,649.24 647.856,663.97 C662.586,678.692 672.666,704.43 677.676,727.834 C682.677,704.421 692.757,678.692 707.478,663.962 C722.2,649.24 747.938,639.16 771.334,634.142 C747.939,629.14 722.201,619.061 707.471,604.339 Z" id="Path" fill="#65AFE5" fill-rule="nonzero"></path>
            <path d="M547.355,406.9 C522.705,382.241 505.833,339.18 497.46,300 C489.074,339.188 472.22,382.258 447.561,406.917 C422.911,431.559 379.837,448.431 340.665,456.821 C379.853,465.194 422.919,482.056 447.569,506.716 C472.219,531.366 489.091,574.436 497.477,613.616 C505.85,574.428 522.717,531.358 547.363,506.699 C572.013,482.049 615.087,465.185 654.259,456.795 C615.08,448.422 572.014,431.551 547.355,406.9 Z" id="Path" fill="#65AFE5" fill-rule="nonzero"></path>
            <path d="M446.352,654.702 C442.145,674.35 433.697,695.965 421.333,708.328 C408.971,720.682 387.365,729.148 367.72,733.355 C387.365,737.571 408.971,746.011 421.333,758.382 C433.697,770.744 442.162,792.342 446.369,812 C450.572,792.342 459.024,770.745 471.392,758.374 C483.746,746.012 505.356,737.554 524.997,733.339 C505.357,729.139 483.746,720.683 471.384,708.32 C459.024,695.966 450.555,674.351 446.352,654.702 Z" id="Path" fill="#65AFE5" fill-rule="nonzero"></path>
        </g>
    </g>
</svg>