<?xml version="1.0" encoding="UTF-8"?>
<svg width="1112px" height="1112px" viewBox="0 0 1112 1112" version="1.1" xmlns="http://www.w3.org/2000/svg" xmlns:xlink="http://www.w3.org/1999/xlink">
    <!-- Generator: Sketch 53.2 (72643) - https://sketchapp.com -->
    <title>Group</title>
    <desc>Created with Sketch.</desc>
    <g id="Page-1" stroke="none" stroke-width="1" fill="none" fill-rule="evenodd">
        <g id="Group">
            <circle id="Oval-Copy-3" fill="#F8F9FA" cx="556" cy="556" r="556"></circle>
            <g id="grow" transform="translate(300.000000, 378.000000)" fill="#65AFE5" fill-rule="nonzero">
                <path d="M214.2,241.991 L214.2,241.991 L214.2,241.991 C197.34,223.585 232.293,102.319 27.075,19.569 C-6.675,25.694 -44.613,196.241 154.794,248.413 C214.403,278.21 205.013,327.882 205.013,355.491 L243.357,355.491 C243.357,355.491 227.669,267.913 297.732,235.819 C345.404,213.991 477.06,206.991 511.997,10.272 C445.387,-28.243 208.825,46.835 214.2,241.991 Z M165.84,208.804 C161.777,211.617 156.199,210.601 153.387,206.538 C133.871,178.272 79.903,113.054 56.043,89.257 C52.543,85.773 52.543,80.101 56.043,76.616 C59.527,73.116 65.199,73.116 68.684,76.616 C94.028,102.007 147.372,166.475 168.106,196.35 C170.918,200.413 169.903,205.991 165.84,208.804 Z M415.965,63.663 C350.715,104.897 297.387,173.507 273.34,210.772 C270.668,214.913 265.121,216.1 260.981,213.428 C256.84,210.74 255.653,205.209 258.34,201.053 C283.481,162.287 337.481,92.287 406.387,48.553 C410.559,45.897 416.075,47.147 418.731,51.319 C421.372,55.491 420.137,61.007 415.965,63.663 Z" id="Shape"></path>
            </g>
        </g>
    </g>
</svg>