<?xml version="1.0" encoding="UTF-8"?>
<svg width="1112px" height="1112px" viewBox="0 0 1112 1112" version="1.1" xmlns="http://www.w3.org/2000/svg" xmlns:xlink="http://www.w3.org/1999/xlink">
    <!-- Generator: Sketch 53.2 (72643) - https://sketchapp.com -->
    <title>Group 3</title>
    <desc>Created with Sketch.</desc>
    <g id="Page-1" stroke="none" stroke-width="1" fill="none" fill-rule="evenodd">
        <g id="Group-3">
            <circle id="Oval-Copy-2" fill="#F8F9FA" cx="556" cy="556" r="556"></circle>
            <g id="know" transform="translate(311.000000, 300.000000)" fill="#65AFE5" fill-rule="nonzero">
                <path d="M454.75,336.531 L421.187,265.39 C421.281,263.265 421.343,261.14 421.343,258.999 C421.343,169.546 348.843,97.03 259.374,97.03 C169.936,97.03 97.436,169.546 97.436,258.999 C97.436,309.28 120.342,354.218 156.311,383.937 L156.311,441.187 C156.311,446.765 159.655,451.812 164.811,453.984 L298.936,510.89 C303.217,512.718 308.155,512.265 312.061,509.687 C315.936,507.124 318.28,502.749 318.28,498.093 L318.28,449.593 C318.28,441.905 324.499,435.671 332.186,435.671 L400.874,435.671 C408.562,435.671 414.812,429.437 414.812,421.749 L414.812,379.936 C414.812,374.608 417.843,369.748 422.625,367.405 L448.25,354.983 C455.094,351.656 458,343.422 454.75,336.531 Z M260.563,397.438 C253.594,397.438 247.5,393.547 244.407,387.813 L276.688,387.813 C273.594,393.547 267.531,397.438 260.563,397.438 Z M293.25,361.781 C293.25,364.25 292,366.422 290.094,367.719 C292,369 293.25,371.172 293.25,373.641 C293.25,377.594 290.031,380.813 286.062,380.813 L234.687,380.813 C230.718,380.813 227.531,377.594 227.531,373.641 C227.531,371.172 228.781,369 230.656,367.719 C228.781,366.422 227.531,364.25 227.531,361.781 C227.531,359.343 228.75,357.187 230.625,355.89 C228.75,354.593 227.531,352.437 227.531,349.999 C227.531,346.03 230.719,342.811 234.687,342.811 L286.062,342.811 C290.031,342.811 293.25,346.03 293.25,349.999 C293.25,352.437 292.031,354.593 290.156,355.89 C292.031,357.188 293.25,359.344 293.25,361.781 Z M302.094,302.672 C290.125,310.594 289.063,316.485 289.063,331.235 L231.719,331.235 C231.719,316.485 230.625,310.594 218.688,302.672 C198.157,289.125 184.625,265.859 184.625,239.438 C184.625,197.61 218.563,163.704 260.375,163.704 C302.219,163.704 336.125,197.61 336.125,239.438 C336.125,265.859 322.594,289.125 302.094,302.672 Z" id="Shape"></path>
                <rect id="Rectangle" x="247.563" y="0" width="23.688" height="53.844"></rect>
                <polygon id="Path" points="167.094 75.406 146.563 87.25 119.625 40.609 140.156 28.781"></polygon>
                <polygon id="Path" points="87.656 146.156 75.813 166.688 29.156 139.75 41.031 119.234"></polygon>
                <polygon id="Path" points="54.25 247.156 54.25 270.844 0.375 270.844 0.406 247.156"></polygon>
                <polygon id="Path" points="477.781 119.234 489.625 139.75 443 166.656 431.156 146.141"></polygon>
                <polygon id="Path" points="378.625 28.781 399.156 40.625 372.219 87.25 351.719 75.391"></polygon>
            </g>
        </g>
    </g>
</svg>