<svg id="レイヤー_1" data-name="レイヤー 1" xmlns="http://www.w3.org/2000/svg" viewBox="0 0 3876 3664.1"><defs><style>.cls-1{fill:#f8f9fa;}.cls-2{fill:#65afe5;}.cls-3{fill:#c4c4c4;}.cls-4,.cls-5{isolation:isolate;}.cls-5{font-size:100px;font-family:HiraginoSansGB-W3-GBpc-EUC-H, Hiragino Sans GB;}</style></defs><g id="enjoy"><circle id="Oval-Copy-4" class="cls-1" cx="556" cy="2944" r="556"/><path id="Path" class="cls-2" d="M707.47,2992.34c-14.71-14.72-24.81-40.46-29.81-63.87-5,23.41-15.07,49.15-29.8,63.88s-40.47,24.8-63.87,29.81c23.41,5,49.14,15.08,63.87,29.81s24.81,40.46,29.82,63.86c5-23.41,15.08-49.14,29.8-63.87s40.46-24.8,63.85-29.82C747.94,3017.14,722.2,3007.06,707.47,2992.34Z"/><path id="Path-2" data-name="Path" class="cls-2" d="M547.35,2794.9c-24.64-24.66-41.52-67.72-49.89-106.9-8.39,39.19-25.24,82.26-49.9,106.92s-67.72,41.51-106.89,49.9c39.18,8.37,82.25,25.24,106.9,49.9s41.52,67.72,49.91,106.9c8.37-39.19,25.24-82.26,49.88-106.92s67.73-41.52,106.9-49.9C615.08,2836.42,572,2819.55,547.35,2794.9Z"/><path id="Path-3" data-name="Path" class="cls-2" d="M446.35,3042.7c-4.21,19.65-12.65,41.27-25,53.63s-34,20.82-53.61,25c19.64,4.22,41.25,12.66,53.61,25s20.83,34,25,53.62c4.2-19.66,12.65-41.26,25-53.63s34-20.82,53.61-25c-19.64-4.2-41.25-12.66-53.62-25S450.55,3062.35,446.35,3042.7Z"/></g><g id="know"><circle id="Oval-Copy-2" class="cls-1" cx="1936" cy="556" r="556"/><path id="Shape" class="cls-2" d="M2145.75,636.53l-33.56-71.14c.09-2.12.15-4.25.15-6.39a162,162,0,1,0-265,124.94v57.25a13.87,13.87,0,0,0,8.5,12.79l134.13,56.91a13.89,13.89,0,0,0,19.34-12.8v-48.5a13.91,13.91,0,0,1,13.91-13.92h68.68a13.93,13.93,0,0,0,13.94-13.92V679.94a14,14,0,0,1,7.81-12.54L2139.25,655A13.92,13.92,0,0,0,2145.75,636.53Zm-194.19,60.91a18.33,18.33,0,0,1-16.15-9.63h32.28A18.31,18.31,0,0,1,1951.56,697.44Zm32.69-35.66a7.17,7.17,0,0,1-3.16,5.94,7.1,7.1,0,0,1,3.16,5.92,7.19,7.19,0,0,1-7.19,7.17h-51.37a7.17,7.17,0,0,1-4-13.09,7.18,7.18,0,0,1,0-11.83,7.18,7.18,0,0,1,4.07-13.08h51.37a7.18,7.18,0,0,1,4.1,13.08A7.16,7.16,0,0,1,1984.25,661.78Zm8.84-59.11c-12,7.92-13,13.81-13,28.56h-57.34c0-14.75-1.1-20.64-13-28.56a75.73,75.73,0,1,1,83.4,0Z"/><rect id="Rectangle" class="cls-2" x="1938.56" y="300" width="23.69" height="53.84"/><polygon id="Path-4" data-name="Path" class="cls-2" points="1858.09 375.41 1837.56 387.25 1810.63 340.61 1831.16 328.78 1858.09 375.41"/><polygon id="Path-5" data-name="Path" class="cls-2" points="1778.66 446.16 1766.81 466.69 1720.16 439.75 1732.03 419.23 1778.66 446.16"/><polygon id="Path-6" data-name="Path" class="cls-2" points="1745.25 547.16 1745.25 570.84 1691.38 570.84 1691.41 547.16 1745.25 547.16"/><polygon id="Path-7" data-name="Path" class="cls-2" points="2168.78 419.23 2180.63 439.75 2134 466.66 2122.16 446.14 2168.78 419.23"/><polygon id="Path-8" data-name="Path" class="cls-2" points="2069.63 328.78 2090.16 340.63 2063.22 387.25 2042.72 375.39 2069.63 328.78"/></g><g id="grow"><circle id="Oval-Copy-3" class="cls-1" cx="3320" cy="2944" r="556"/><g id="Shape-2" data-name="Shape"><path class="cls-2" d="M3278.2,3008h0c-16.86-18.4,18.09-139.67-187.12-222.42-33.76,6.12-71.69,176.67,127.71,228.84,59.61,29.8,50.22,79.47,50.22,107.08h38.35s-15.69-87.58,54.37-119.67C3409.4,2980,3541.06,2973,3576,2776.27,3509.39,2737.76,3272.82,2812.83,3278.2,3008Zm-48.36-33.19a8.94,8.94,0,0,1-12.45-2.26c-19.52-28.27-73.49-93.49-97.35-117.28a8.94,8.94,0,1,1,12.64-12.64c25.35,25.39,78.69,89.86,99.43,119.73A9,9,0,0,1,3229.84,2974.8ZM3480,2829.66c-65.25,41.24-118.57,109.85-142.62,147.11a8.94,8.94,0,1,1-15-9.72c25.14-38.76,79.14-108.76,148-152.5a8.94,8.94,0,1,1,9.57,15.11Z"/></g></g><g id="want"><circle id="Oval" class="cls-1" cx="1938" cy="2058" r="556"/><g id="火の玉のアイコン素材3"><path id="Shape-3" data-name="Shape" class="cls-2" d="M2085.2,2102.22a309.1,309.1,0,0,0-19.23-47.56c-13.44-26.1-19.81-63.5-9.24-100.78-16-3.35-32.84,8.34-32.29,27.82.58,20-13,38-31.72,31.72-20-6.67-12.31-23.23,2.78-42.48,28.39-36.17-1.31-78.75-30-93.66,11.64,28.55-5.22,61.27-26.75,55.25-23.94-6.65-23.94-34.5-2.8-55.64,30.36-30.34,2.24-54.3,6.14-74.89-13.9,2.78-20.47,17.41-20,29.94,1.11,27.26-19.53,28.7-34.06,44.55-17.22,18.76-23.75,42.64-11.09,66.64,26.72,50.62,12.56,77.59-14.71,71.47-18.42-4.16-22.42-41.19-7.39-54.63-27.15-1-41.9,24.52-41.7,62.42.11,20.55-8.76,49.46-21.64,79a156.75,156.75,0,1,0,303.2,55.9A163.5,163.5,0,0,0,2085.2,2102.22ZM1938,2274a90.73,90.73,0,0,1-90.73-90.75c0-40.2,25-88.84,25-100.06,17.45,7.47,15,19.93,13.71,33.65-.57,6.27,2.49,13.11,6.86,15.28,3,2.28,7.53,3,11.6,3a17.89,17.89,0,0,0,15.69-26.7c-5.47-12.42-15.1-24-.47-48.91,12.47-21.2,12.47-39.9,12.47-39.9s31.17,18.7,16.21,47.39c-7.78,14.89-6,26,.72,32.62a20.9,20.9,0,0,0,22.38,7,10.33,10.33,0,0,0,2.37-.71c.21-.1.41-.16.6-.25l.34-.19a21.67,21.67,0,0,0,11-28.22c0-.19,0-.31,0-.31s43,23.7,43,106.31A90.74,90.74,0,0,1,1938,2274Z"/></g></g><polygon class="cls-3" points="1286.02 3009.62 1286.02 2959.62 1162.02 3021.62 1286.02 3083.62 1286.02 3033.62 2713.39 3033.62 2713.39 3009.62 1286.02 3009.62"/><polygon class="cls-3" points="3095.92 2396.77 3087.61 2258.38 3044.31 2283.38 2330.63 1047.25 2309.84 1059.25 3023.53 2295.38 2980.22 2320.38 3095.92 2396.77"/><polygon class="cls-3" points="1427.03 1125.83 1470.33 1150.83 756.65 2386.97 777.43 2398.97 1491.12 1162.83 1534.42 1187.83 1542.72 1049.45 1427.03 1125.83"/><g id="Know-_知る_" data-name="Know-(知る)" class="cls-4"><text class="cls-5" transform="translate(1647.75 1255)">Know (知る)</text></g><g id="Grow-_成長する_" data-name="Grow-(成長する)" class="cls-4"><text class="cls-5" transform="translate(2939.3 3643)">Grow (成長する)</text></g><g id="Want-_したい_" data-name="Want-(したい)" class="cls-4"><text class="cls-5" transform="translate(1606.2 2757)">Want (したい)</text></g><g id="Enjoy-_楽しむ_" data-name="Enjoy-(楽しむ)" class="cls-4"><text class="cls-5" transform="translate(218 3643)">Enjoy (楽しむ)</text></g></svg>