<?xml version="1.0" encoding="UTF-8"?>
<svg width="1112px" height="1112px" viewBox="0 0 1112 1112" version="1.1" xmlns="http://www.w3.org/2000/svg" xmlns:xlink="http://www.w3.org/1999/xlink">
    <!-- Generator: Sketch 53.2 (72643) - https://sketchapp.com -->
    <title>Group</title>
    <desc>Created with Sketch.</desc>
    <g id="Page-1" stroke="none" stroke-width="1" fill="none" fill-rule="evenodd">
        <g id="Group">
            <circle id="Oval" fill="#F8F9FA" cx="556" cy="556" r="556"></circle>
            <g id="火の玉のアイコン素材3" transform="translate(399.000000, 300.000000)" fill="#65AFE5" fill-rule="nonzero">
                <path d="M304.203,300.219 C299.031,283.531 291.953,266.25 284.969,252.656 C271.531,226.562 265.156,189.156 275.735,151.875 C259.751,148.531 242.891,160.219 243.438,179.703 C244.016,199.656 230.438,217.656 211.719,211.422 C191.688,204.75 199.406,188.188 214.5,168.938 C242.891,132.766 213.187,90.188 184.5,75.282 C196.141,103.829 179.281,136.548 157.75,130.532 C133.812,123.876 133.812,96.032 154.953,74.891 C185.312,44.547 157.187,20.594 161.094,0 C147.188,2.781 140.625,17.406 141.125,29.938 C142.234,57.204 121.594,58.641 107.062,74.485 C89.843,93.251 83.312,117.126 95.968,141.126 C122.687,191.751 108.531,218.72 81.265,212.595 C62.843,208.439 58.843,171.407 73.874,157.97 C46.718,156.939 31.968,182.486 32.171,220.392 C32.28,240.939 23.405,269.845 10.53,299.376 C3.905,316.751 0.264,335.579 0.264,355.282 C0.266,441.844 70.438,512 157,512 C243.562,512 313.734,441.844 313.734,355.281 C313.734,336.375 310.344,317 304.203,300.219 Z M157,472 C106.875,472 66.266,431.375 66.266,381.25 C66.266,341.047 91.235,292.406 91.235,281.187 C108.688,288.656 106.188,301.125 104.954,314.843 C104.376,321.109 107.438,327.952 111.813,330.124 C114.813,332.405 119.344,333.093 123.407,333.093 C133.376,333.093 141.423,325.03 141.423,315.093 C141.423,311.905 140.532,308.968 139.095,306.39 C133.626,293.968 124.001,282.359 138.626,257.484 C151.095,236.281 151.095,217.578 151.095,217.578 C151.095,217.578 182.267,236.281 167.314,264.969 C159.533,279.86 161.298,290.922 168.033,297.594 C172.033,302.375 177.971,305.5 184.689,305.5 C186.689,305.5 188.564,305.125 190.408,304.625 C191.252,304.484 192.033,304.234 192.783,303.906 C192.986,303.812 193.189,303.75 193.377,303.656 C193.502,303.593 193.596,303.531 193.721,303.468 C201.19,300.03 206.44,292.53 206.44,283.749 C206.44,280.733 205.815,277.874 204.706,275.249 C204.722,275.061 204.722,274.936 204.722,274.936 C204.722,274.936 247.722,298.639 247.722,381.249 C247.719,431.375 207.094,472 157,472 Z" id="Shape"></path>
            </g>
        </g>
    </g>
</svg>