<?xml version="1.0" standalone="no"?>
<!DOCTYPE svg PUBLIC "-//W3C//DTD SVG 20010904//EN"
 "http://www.w3.org/TR/2001/REC-SVG-20010904/DTD/svg10.dtd">
<svg version="1.0" xmlns="http://www.w3.org/2000/svg"
 width="232.000000pt" height="232.000000pt" viewBox="0 0 232.000000 232.000000"
 preserveAspectRatio="xMidYMid meet">
<metadata>
Created by potrace 1.11, written by Peter Selinger 2001-2013
</metadata>
<g transform="translate(0.000000,232.000000) scale(0.100000,-0.100000)"
fill="#000000" stroke="none">
<path d="M1143 2112 c-27 -17 -55 -126 -60 -235 -6 -119 9 -206 54 -307 25
-57 38 -71 59 -63 23 9 23 32 0 85 -41 94 -51 148 -50 263 0 89 5 122 23 173
29 78 18 112 -26 84z"/>
<path d="M1590 1981 c-117 -46 -234 -154 -295 -272 -40 -78 -42 -109 -6 -109
14 0 30 19 55 68 65 123 173 222 282 259 50 17 63 35 44 58 -16 19 -24 18 -80
-4z"/>
<path d="M761 1926 c-9 -11 -8 -31 3 -86 31 -146 132 -300 264 -400 70 -53
105 -60 110 -24 2 15 -8 28 -35 46 -70 46 -142 119 -189 189 -50 75 -93 184
-94 235 0 47 -34 70 -59 40z"/>
<path d="M1530 1689 c-137 -23 -264 -118 -327 -246 -35 -71 -37 -73 -72 -73
-64 1 -185 27 -256 55 -94 38 -173 92 -237 165 -52 59 -83 74 -94 45 -14 -36
102 -160 209 -223 95 -57 254 -102 361 -102 l39 0 -7 -37 c-3 -21 -9 -135 -13
-253 l-6 -215 -58 -62 c-105 -113 -170 -261 -172 -390 -2 -92 19 -126 80 -131
32 -2 47 3 72 24 72 60 106 176 136 467 6 52 10 60 38 78 54 33 138 60 204 66
66 6 88 19 77 47 -13 34 -169 15 -262 -33 -24 -12 -45 -21 -47 -19 -6 6 12
435 18 445 4 6 39 14 79 17 338 33 579 198 473 324 -37 44 -139 66 -235 51z
m179 -83 c28 -25 27 -39 -9 -79 -56 -64 -218 -126 -380 -145 -41 -5 -76 -8
-78 -7 -8 7 44 91 81 132 79 86 171 124 288 120 59 -2 82 -6 98 -21z m-599
-1002 c-22 -174 -52 -265 -99 -308 -35 -32 -51 -15 -51 56 1 97 54 232 126
318 15 17 28 29 31 27 2 -3 -1 -45 -7 -93z"/>
</g>
</svg>
